# xmcd
#
# Track frame offsets:
#	150
#	11515
#	29400
#	42610
#	61750
#	75117
#	87147
#	99585
#	112760
#	127287
#	143337
#	157735
#	169075
#	180437
#	191480
#	205805
#	218470
#	235684
#	257127
#	270785
#	285732
#	296940
#	315302
#
# Disc length: 4430 seconds
#
# Revision: 2
# Processed by: cddbd v1.4PL0 Copyright (c) Steve Scherf et al.
# Submitted via: EasyCDDAExtractor 5.0.6
#
DISCID=27114c17
DTITLE=<< compilation disc >> - South African Country Vol 2
DYEAR=1900
DGENRE=South African
TTITLE0=I Don't Wanna Play House
TTITLE1=Here In The Real World
TTITLE2=Wasted Days And Wasted Nights
TTITLE3=The Wedding
TTITLE4=Butterfly
TTITLE5=Broken Wings
TTITLE6=I Fall To Pieces
TTITLE7=Me And My Dog Named Malcolm
TTITLE8=Sad Songs
TTITLE9=Baby Blue Eyes
TTITLE10=You Ask Me To
TTITLE11=It Don't Hurt Anymore
TTITLE12=Blue Eyes Crying In The Rain
TTITLE13=Darling It's Wonderful
TTITLE14=Baby Answer Me
TTITLE15=God Made Love
TTITLE16=Our Sweet Precious Love
TTITLE17=Hey Mr Bluebird
TTITLE18=My Best Friend
TTITLE19=Honky Tonk Angels
TTITLE20=Turn Around
TTITLE21=That Silver Headed Daddy Of Mine
TTITLE22=Loving You Ain't Easy
EXTD=
EXTT0=
EXTT1=
EXTT2=
EXTT3=
EXTT4=
EXTT5=
EXTT6=
EXTT7=
EXTT8=
EXTT9=
EXTT10=
EXTT11=
EXTT12=
EXTT13=
EXTT14=
EXTT15=
EXTT16=
EXTT17=
EXTT18=
EXTT19=
EXTT20=
EXTT21=
EXTT22=
PLAYORDER=
